<svg width="572" height="400" viewBox="0 0 572 400" fill="none" xmlns="http://www.w3.org/2000/svg">
<g clip-path="url(#clip0_10_104)">
<path d="M404.606 91.5V106.5L437.606 140.5V197.5L587.606 347.5" stroke="white" stroke-opacity="0.2" stroke-width="2" stroke-linecap="round" stroke-linejoin="round"/>
<path d="M6.1062 77.5L124.106 195.5H182.106L138.606 151L241.106 253.5H267.606M267.606 253.5L202.606 189V144.5L150.106 91.5M267.606 253.5H284.606L353.606 322.5M353.606 322.5V276.5L304.606 227.718M353.606 322.5L446.606 415.5M170.606 44.5L241.106 116V164.5L304.606 227.718M304.606 227.718V138.5L253.106 86.5" stroke="white" stroke-opacity="0.2" stroke-width="2" stroke-linecap="round" stroke-linejoin="round"/>
<path d="M496.106 413.5L434.106 351" stroke="white" stroke-opacity="0.2" stroke-width="2" stroke-linecap="round" stroke-linejoin="round"/>
<path d="M227.106 14.5H274.606L320.106 60V118.5L278.106 76.5L341.106 139.5V208L549.106 415.5" stroke="white" stroke-opacity="0.2" stroke-width="2" stroke-linecap="round" stroke-linejoin="round"/>
<path d="M422.606 265.5L549.606 392H589.606L609.606 413" stroke="white" stroke-opacity="0.2" stroke-width="2" stroke-linecap="round" stroke-linejoin="round"/>
<path d="M294.106 -10L371.606 67V161.5L558.106 348H612.106L661.106 396.5" stroke="white" stroke-opacity="0.2" stroke-width="2" stroke-linecap="round" stroke-linejoin="round"/>
<path d="M487.106 204L514.106 232H539.606L660.606 355.5" stroke="white" stroke-opacity="0.2" stroke-width="2" stroke-linecap="round" stroke-linejoin="round"/>
<path d="M352.106 13L384.106 44.5H418.106L463.106 89V132L494.606 163.5H517.606L639.606 285V243L578.606 183.5M578.606 183.5V153.25V123L530.356 74.75L482.106 26.5V-10M578.606 183.5L449.606 54M449.606 54V-4.5L445.106 -10M449.606 54L432.356 36.75L415.106 19.5H398.106L369.106 -10" stroke="white" stroke-opacity="0.2" stroke-width="2" stroke-linecap="round" stroke-linejoin="round"/>
<path d="M545.106 25.5L574.606 55.5H605.606M605.606 55.5L541.606 -10M605.606 55.5L634.606 84V143M634.606 143L592.106 101M634.606 143L662.606 171.5" stroke="white" stroke-opacity="0.2" stroke-width="2" stroke-linecap="round" stroke-linejoin="round"/>
<circle cx="5.6062" cy="78" r="5" fill="white" fill-opacity="0.2"/>
<circle cx="137.606" cy="150" r="5" fill="white" fill-opacity="0.2"/>
<circle cx="146.606" cy="88" r="5" fill="white" fill-opacity="0.2"/>
<circle cx="169.606" cy="43" r="5" fill="white" fill-opacity="0.2"/>
<circle cx="251.606" cy="85" r="5" fill="white" fill-opacity="0.2"/>
<circle cx="276.606" cy="74" r="5" fill="white" fill-opacity="0.2"/>
<circle cx="226.606" cy="15" r="5" fill="white" fill-opacity="0.2"/>
<circle cx="433.606" cy="351" r="5" fill="white" fill-opacity="0.2"/>
<circle cx="422.606" cy="266" r="5" fill="white" fill-opacity="0.2"/>
<circle cx="486.606" cy="204" r="5" fill="white" fill-opacity="0.2"/>
<circle cx="404.606" cy="92" r="5" fill="white" fill-opacity="0.2"/>
<circle cx="351.606" cy="12" r="5" fill="white" fill-opacity="0.2"/>
<circle cx="543.606" cy="24" r="5" fill="white" fill-opacity="0.2"/>
</g>
<defs>
<clipPath id="clip0_10_104">
<rect width="572" height="400" fill="white"/>
</clipPath>
</defs>
</svg>
