<svg width="30" height="30" viewBox="0 0 30 30" fill="none" xmlns="http://www.w3.org/2000/svg">
<path d="M23.75 13.7503H9.78753L15.8875 7.65032C16.375 7.16282 16.375 6.36282 15.8875 5.87532C15.7719 5.75944 15.6345 5.66751 15.4833 5.60478C15.3321 5.54205 15.17 5.50977 15.0063 5.50977C14.8426 5.50977 14.6805 5.54205 14.5292 5.60478C14.378 5.66751 14.2407 5.75944 14.125 5.87532L5.88753 14.1128C5.77165 14.2285 5.67971 14.3658 5.61699 14.517C5.55426 14.6683 5.52197 14.8304 5.52197 14.9941C5.52197 15.1578 5.55426 15.3199 5.61699 15.4711C5.67971 15.6223 5.77165 15.7597 5.88753 15.8753L14.125 24.1128C14.2408 24.2285 14.3781 24.3203 14.5293 24.383C14.6806 24.4456 14.8426 24.4778 15.0063 24.4778C15.1699 24.4778 15.332 24.4456 15.4832 24.383C15.6344 24.3203 15.7718 24.2285 15.8875 24.1128C16.0033 23.9971 16.0951 23.8597 16.1577 23.7085C16.2203 23.5573 16.2526 23.3952 16.2526 23.2316C16.2526 23.0679 16.2203 22.9058 16.1577 22.7546C16.0951 22.6034 16.0033 22.466 15.8875 22.3503L9.78753 16.2503H23.75C24.4375 16.2503 25 15.6878 25 15.0003C25 14.3128 24.4375 13.7503 23.75 13.7503Z" fill="white"/>
</svg>
