<svg width="85" height="18" viewBox="0 0 85 18" fill="none" xmlns="http://www.w3.org/2000/svg">
<path d="M1.05682 13V4.27273H4.00568C4.6875 4.27273 5.24716 4.3892 5.68466 4.62216C6.12216 4.85227 6.44602 5.16903 6.65625 5.57244C6.86648 5.97585 6.97159 6.43466 6.97159 6.94886C6.97159 7.46307 6.86648 7.91903 6.65625 8.31676C6.44602 8.71449 6.12358 9.02699 5.68892 9.25426C5.25426 9.47869 4.69886 9.59091 4.02273 9.59091H1.63636V8.63636H3.98864C4.45455 8.63636 4.82955 8.56818 5.11364 8.43182C5.40057 8.29545 5.60795 8.10227 5.7358 7.85227C5.86648 7.59943 5.93182 7.2983 5.93182 6.94886C5.93182 6.59943 5.86648 6.29403 5.7358 6.03267C5.60511 5.77131 5.39631 5.5696 5.10938 5.42756C4.82244 5.28267 4.44318 5.21023 3.97159 5.21023H2.11364V13H1.05682ZM5.16477 9.07955L7.3125 13H6.08523L3.97159 9.07955H5.16477ZM11.2702 13.1364C10.6396 13.1364 10.0955 12.9972 9.63814 12.7188C9.18359 12.4375 8.83274 12.0455 8.58558 11.5426C8.34126 11.0369 8.21911 10.4489 8.21911 9.77841C8.21911 9.10795 8.34126 8.51705 8.58558 8.00568C8.83274 7.49148 9.17649 7.09091 9.61683 6.80398C10.06 6.5142 10.5771 6.36932 11.168 6.36932C11.5089 6.36932 11.8455 6.42614 12.1779 6.53977C12.5103 6.65341 12.8129 6.83807 13.0856 7.09375C13.3583 7.34659 13.5756 7.68182 13.7376 8.09943C13.8995 8.51705 13.9805 9.03125 13.9805 9.64205V10.0682H8.93501V9.19886H12.9577C12.9577 8.82955 12.8839 8.5 12.7362 8.21023C12.5913 7.92045 12.3839 7.69176 12.114 7.52415C11.8469 7.35653 11.5316 7.27273 11.168 7.27273C10.7674 7.27273 10.4208 7.37216 10.1282 7.57102C9.83842 7.76705 9.61541 8.02273 9.45916 8.33807C9.30291 8.65341 9.22479 8.99148 9.22479 9.35227V9.93182C9.22479 10.4261 9.31001 10.8452 9.48047 11.1889C9.65376 11.5298 9.89382 11.7898 10.2006 11.9688C10.5075 12.1449 10.864 12.233 11.2702 12.233C11.5344 12.233 11.7731 12.196 11.9862 12.1222C12.2021 12.0455 12.3881 11.9318 12.5444 11.7812C12.7006 11.6278 12.8214 11.4375 12.9066 11.2102L13.8782 11.483C13.7759 11.8125 13.604 12.1023 13.3626 12.3523C13.1211 12.5994 12.8228 12.7926 12.4677 12.9318C12.1126 13.0682 11.7134 13.1364 11.2702 13.1364ZM17.4364 13.1534C17.0217 13.1534 16.6452 13.0753 16.3072 12.919C15.9691 12.7599 15.7006 12.5312 15.5018 12.233C15.3029 11.9318 15.2035 11.5682 15.2035 11.142C15.2035 10.767 15.2773 10.4631 15.4251 10.2301C15.5728 9.99432 15.7702 9.80966 16.0174 9.67614C16.2646 9.54261 16.5373 9.44318 16.8356 9.37784C17.1367 9.30966 17.4393 9.25568 17.7433 9.21591C18.141 9.16477 18.4634 9.12642 18.7106 9.10085C18.9606 9.07244 19.1424 9.02557 19.256 8.96023C19.3725 8.89489 19.4308 8.78125 19.4308 8.61932V8.58523C19.4308 8.16477 19.3157 7.83807 19.0856 7.60511C18.8583 7.37216 18.5131 7.25568 18.0501 7.25568C17.57 7.25568 17.1935 7.3608 16.9208 7.57102C16.6481 7.78125 16.4563 8.00568 16.3455 8.24432L15.391 7.90341C15.5614 7.50568 15.7887 7.19602 16.0728 6.97443C16.3597 6.75 16.6722 6.59375 17.0103 6.50568C17.3512 6.41477 17.6864 6.36932 18.016 6.36932C18.2262 6.36932 18.4677 6.39489 18.7404 6.44602C19.016 6.49432 19.2816 6.59517 19.5373 6.74858C19.7958 6.90199 20.0103 7.13352 20.1808 7.44318C20.3512 7.75284 20.4364 8.16761 20.4364 8.6875V13H19.4308V12.1136H19.3796C19.3114 12.2557 19.1978 12.4077 19.0387 12.5696C18.8796 12.7315 18.668 12.8693 18.4038 12.983C18.1396 13.0966 17.8171 13.1534 17.4364 13.1534ZM17.5898 12.25C17.9876 12.25 18.3228 12.1719 18.5955 12.0156C18.8711 11.8594 19.0785 11.6577 19.2177 11.4105C19.3597 11.1634 19.4308 10.9034 19.4308 10.6307V9.71023C19.3881 9.76136 19.2944 9.80824 19.1495 9.85085C19.0075 9.89062 18.8427 9.92614 18.6552 9.95739C18.4705 9.9858 18.2901 10.0114 18.114 10.0341C17.9407 10.054 17.8001 10.071 17.6921 10.0852C17.4308 10.1193 17.1864 10.1747 16.9592 10.2514C16.7347 10.3253 16.5529 10.4375 16.4137 10.5881C16.2773 10.7358 16.2092 10.9375 16.2092 11.1932C16.2092 11.5426 16.3384 11.8068 16.5969 11.9858C16.8583 12.1619 17.1893 12.25 17.5898 12.25ZM24.7436 13.1364C24.1982 13.1364 23.7166 12.9986 23.299 12.723C22.8814 12.4446 22.5547 12.0526 22.3189 11.5469C22.0831 11.0384 21.9652 10.4375 21.9652 9.74432C21.9652 9.05682 22.0831 8.46023 22.3189 7.95455C22.5547 7.44886 22.8828 7.05824 23.3033 6.78267C23.7237 6.5071 24.2095 6.36932 24.7607 6.36932C25.1868 6.36932 25.5234 6.44034 25.7706 6.58239C26.0206 6.72159 26.2109 6.88068 26.3416 7.05966C26.4751 7.2358 26.5788 7.38068 26.6527 7.49432H26.7379V4.27273H27.7436V13H26.772V11.9943H26.6527C26.5788 12.1136 26.4737 12.2642 26.3374 12.446C26.201 12.625 26.0064 12.7855 25.7536 12.9276C25.5007 13.0668 25.1641 13.1364 24.7436 13.1364ZM24.88 12.233C25.2834 12.233 25.6243 12.1278 25.9027 11.9176C26.1811 11.7045 26.3928 11.4105 26.5376 11.0355C26.6825 10.6577 26.755 10.2216 26.755 9.72727C26.755 9.23864 26.6839 8.81108 26.5419 8.4446C26.3999 8.07528 26.1896 7.78835 25.9112 7.58381C25.6328 7.37642 25.2891 7.27273 24.88 7.27273C24.4538 7.27273 24.0987 7.3821 23.8146 7.60085C23.5334 7.81676 23.3217 8.1108 23.1797 8.48295C23.0405 8.85227 22.9709 9.26705 22.9709 9.72727C22.9709 10.1932 23.0419 10.6165 23.1839 10.9972C23.3288 11.375 23.5419 11.6761 23.8232 11.9006C24.1072 12.1222 24.4595 12.233 24.88 12.233ZM33.2365 4.27273H34.4979L37.4638 11.517H37.5661L40.532 4.27273H41.7933V13H40.8047V6.36932H40.7195L37.9922 13H37.0376L34.3104 6.36932H34.2251V13H33.2365V4.27273ZM46.435 13.1364C45.8441 13.1364 45.3256 12.9957 44.8796 12.7145C44.4364 12.4332 44.0898 12.0398 43.8398 11.5341C43.5927 11.0284 43.4691 10.4375 43.4691 9.76136C43.4691 9.07955 43.5927 8.48437 43.8398 7.97585C44.0898 7.46733 44.4364 7.07244 44.8796 6.79119C45.3256 6.50994 45.8441 6.36932 46.435 6.36932C47.0259 6.36932 47.543 6.50994 47.9862 6.79119C48.4322 7.07244 48.7788 7.46733 49.0259 7.97585C49.2759 8.48437 49.4009 9.07955 49.4009 9.76136C49.4009 10.4375 49.2759 11.0284 49.0259 11.5341C48.7788 12.0398 48.4322 12.4332 47.9862 12.7145C47.543 12.9957 47.0259 13.1364 46.435 13.1364ZM46.435 12.233C46.8839 12.233 47.2532 12.1179 47.543 11.8878C47.8327 11.6577 48.0472 11.3551 48.1864 10.9801C48.3256 10.6051 48.3952 10.1989 48.3952 9.76136C48.3952 9.32386 48.3256 8.91619 48.1864 8.53835C48.0472 8.16051 47.8327 7.85511 47.543 7.62216C47.2532 7.3892 46.8839 7.27273 46.435 7.27273C45.9862 7.27273 45.6168 7.3892 45.3271 7.62216C45.0373 7.85511 44.8228 8.16051 44.6836 8.53835C44.5444 8.91619 44.4748 9.32386 44.4748 9.76136C44.4748 10.1989 44.5444 10.6051 44.6836 10.9801C44.8228 11.3551 45.0373 11.6577 45.3271 11.8878C45.6168 12.1179 45.9862 12.233 46.435 12.233ZM50.9361 13V6.45455H51.9077V7.44318H51.9759C52.0952 7.11932 52.3111 6.85653 52.6236 6.65483C52.9361 6.45312 53.2884 6.35227 53.6804 6.35227C53.7543 6.35227 53.8466 6.35369 53.9574 6.35653C54.0682 6.35937 54.152 6.36364 54.2088 6.36932V7.39205C54.1747 7.38352 54.0966 7.37074 53.9744 7.35369C53.8551 7.33381 53.7287 7.32386 53.5952 7.32386C53.277 7.32386 52.9929 7.39062 52.7429 7.52415C52.4957 7.65483 52.2997 7.83665 52.1548 8.0696C52.0128 8.29972 51.9418 8.5625 51.9418 8.85795V13H50.9361ZM57.946 13.1364C57.3153 13.1364 56.7713 12.9972 56.3139 12.7188C55.8594 12.4375 55.5085 12.0455 55.2614 11.5426C55.017 11.0369 54.8949 10.4489 54.8949 9.77841C54.8949 9.10795 55.017 8.51705 55.2614 8.00568C55.5085 7.49148 55.8523 7.09091 56.2926 6.80398C56.7358 6.5142 57.2528 6.36932 57.8438 6.36932C58.1847 6.36932 58.5213 6.42614 58.8537 6.53977C59.1861 6.65341 59.4886 6.83807 59.7614 7.09375C60.0341 7.34659 60.2514 7.68182 60.4134 8.09943C60.5753 8.51705 60.6562 9.03125 60.6562 9.64205V10.0682H55.6108V9.19886H59.6335C59.6335 8.82955 59.5597 8.5 59.4119 8.21023C59.267 7.92045 59.0597 7.69176 58.7898 7.52415C58.5227 7.35653 58.2074 7.27273 57.8438 7.27273C57.4432 7.27273 57.0966 7.37216 56.804 7.57102C56.5142 7.76705 56.2912 8.02273 56.1349 8.33807C55.9787 8.65341 55.9006 8.99148 55.9006 9.35227V9.93182C55.9006 10.4261 55.9858 10.8452 56.1562 11.1889C56.3295 11.5298 56.5696 11.7898 56.8764 11.9688C57.1832 12.1449 57.5398 12.233 57.946 12.233C58.2102 12.233 58.4489 12.196 58.6619 12.1222C58.8778 12.0455 59.0639 11.9318 59.2202 11.7812C59.3764 11.6278 59.4972 11.4375 59.5824 11.2102L60.554 11.483C60.4517 11.8125 60.2798 12.1023 60.0384 12.3523C59.7969 12.5994 59.4986 12.7926 59.1435 12.9318C58.7884 13.0682 58.3892 13.1364 57.946 13.1364Z" fill="#061951"/>
<path d="M78.655 8.4675L74.41 4.23C74.3403 4.1597 74.2573 4.10391 74.1659 4.06583C74.0745 4.02775 73.9765 4.00815 73.8775 4.00815C73.7785 4.00815 73.6805 4.02775 73.5891 4.06583C73.4977 4.10391 73.4147 4.1597 73.345 4.23C73.2053 4.37052 73.1269 4.56061 73.1269 4.75875C73.1269 4.95689 73.2053 5.14698 73.345 5.2875L77.0575 9.0375L73.345 12.75C73.2053 12.8905 73.1269 13.0806 73.1269 13.2787C73.1269 13.4769 73.2053 13.667 73.345 13.8075C73.4145 13.8784 73.4973 13.9347 73.5887 13.9734C73.6801 14.012 73.7783 14.0321 73.8775 14.0325C73.9767 14.0321 74.0749 14.012 74.1663 13.9734C74.2577 13.9347 74.3405 13.8784 74.41 13.8075L78.655 9.57C78.7311 9.49977 78.7919 9.41453 78.8334 9.31965C78.875 9.22478 78.8965 9.12232 78.8965 9.01875C78.8965 8.91517 78.875 8.81272 78.8334 8.71784C78.7919 8.62297 78.7311 8.53773 78.655 8.4675V8.4675Z" fill="#061951"/>
</svg>
