<svg width="400" height="36" viewBox="0 0 400 36" fill="none" xmlns="http://www.w3.org/2000/svg">
<rect width="400" height="36" fill="white"/>
<path d="M28.0917 24.9083L25 21.8417C26.2001 20.3453 26.7812 18.4461 26.624 16.5344C26.4668 14.6228 25.5831 12.844 24.1546 11.5639C22.7261 10.2838 20.8615 9.59959 18.9441 9.65206C17.0267 9.70453 15.2023 10.4896 13.8459 11.846C12.4896 13.2023 11.7045 15.0267 11.6521 16.9441C11.5996 18.8615 12.2838 20.7261 13.5639 22.1546C14.844 23.5831 16.6227 24.4668 18.5344 24.624C20.4461 24.7813 22.3453 24.2001 23.8417 23L26.9083 26.0667C26.9858 26.1448 27.078 26.2068 27.1795 26.2491C27.2811 26.2914 27.39 26.3132 27.5 26.3132C27.61 26.3132 27.7189 26.2914 27.8205 26.2491C27.922 26.2068 28.0142 26.1448 28.0917 26.0667C28.2419 25.9113 28.3258 25.7036 28.3258 25.4875C28.3258 25.2714 28.2419 25.0637 28.0917 24.9083V24.9083ZM19.1667 23C18.0129 23 16.8851 22.6579 15.9258 22.0169C14.9666 21.3759 14.2189 20.4649 13.7774 19.399C13.3359 18.3331 13.2203 17.1602 13.4454 16.0286C13.6705 14.8971 14.2261 13.8577 15.0419 13.0419C15.8577 12.2261 16.8971 11.6705 18.0286 11.4454C19.1602 11.2203 20.3331 11.3359 21.399 11.7774C22.4649 12.2189 23.3759 12.9666 24.0169 13.9258C24.6579 14.8851 25 16.0129 25 17.1667C25 18.7138 24.3854 20.1975 23.2915 21.2915C22.1975 22.3854 20.7138 23 19.1667 23V23Z" fill="#1F1F1F" fill-opacity="0.4"/>
</svg>
