<svg width="20" height="20" viewBox="0 0 20 20" fill="none" xmlns="http://www.w3.org/2000/svg">
<path d="M12.9999 9.00033C12.9999 9.79598 12.6839 10.559 12.1213 11.1217C11.5587 11.6843 10.7956 12.0003 9.99995 12.0003C9.2043 12.0003 8.44124 11.6843 7.87863 11.1217C7.31602 10.559 6.99995 9.79598 6.99995 9.00033C6.99995 8.20468 7.31602 7.44162 7.87863 6.87901C8.44124 6.3164 9.2043 6.00033 9.99995 6.00033C10.7956 6.00033 11.5587 6.3164 12.1213 6.87901C12.6839 7.44162 12.9999 8.20468 12.9999 9.00033ZM11.9999 9.00033C11.9999 8.4699 11.7892 7.96119 11.4142 7.58612C11.0391 7.21105 10.5304 7.00033 9.99995 7.00033C9.46951 7.00033 8.96081 7.21105 8.58573 7.58612C8.21066 7.96119 7.99995 8.4699 7.99995 9.00033C7.99995 9.53077 8.21066 10.0395 8.58573 10.4145C8.96081 10.7896 9.46951 11.0003 9.99995 11.0003C10.5304 11.0003 11.0391 10.7896 11.4142 10.4145C11.7892 10.0395 11.9999 9.53077 11.9999 9.00033ZM14.9499 13.9553C16.2629 12.6417 17.0004 10.8605 17.0004 9.00333C17.0004 7.14612 16.2629 5.36492 14.9499 4.05133C14.3001 3.40101 13.5284 2.88512 12.6791 2.53314C11.8297 2.18116 10.9193 2 9.99995 2C9.08056 2 8.17018 2.18116 7.32084 2.53314C6.47149 2.88512 5.69983 3.40101 5.04995 4.05133C3.73704 5.36492 2.99951 7.14612 2.99951 9.00333C2.99951 10.8605 3.73704 12.6417 5.04995 13.9553L6.57095 15.4543L8.61395 17.4393L8.74695 17.5573C9.52195 18.1853 10.6569 18.1453 11.3869 17.4393L13.8219 15.0693L14.9499 13.9553ZM5.75495 4.75633C6.31232 4.19871 6.97409 3.75637 7.70246 3.45457C8.43083 3.15278 9.21153 2.99744 9.99995 2.99744C10.7884 2.99744 11.5691 3.15278 12.2974 3.45457C13.0258 3.75637 13.6876 4.19871 14.2449 4.75633C15.3397 5.85179 15.9691 7.32765 16.0019 8.87599C16.0347 10.4243 15.4683 11.9255 14.4209 13.0663L14.2449 13.2503L12.9239 14.5543L10.6939 16.7223L10.5999 16.8023C10.427 16.9326 10.2164 17.0031 9.99995 17.0031C9.78345 17.0031 9.57284 16.9326 9.39995 16.8023L9.30695 16.7223L6.32695 13.8173L5.75495 13.2503L5.57895 13.0673C4.53159 11.9265 3.96523 10.4253 3.99802 8.87699C4.03081 7.32865 4.66023 5.85179 5.75495 4.75633Z" fill="#290F20" fill-opacity="0.6"/>
</svg>
