<svg width="80" height="80" viewBox="0 0 80 80" fill="none" xmlns="http://www.w3.org/2000/svg">
<rect width="80" height="80" rx="10" fill="white"/>
<path d="M18.2773 18.3413V21.6186H17.4579H16.6386V20.3896V19.1606H15.8193H15V21.2089V23.2572H18.4104H21.8208L22.6094 24.6398C23.0395 25.3976 23.398 26.0736 23.398 26.135C23.398 26.1965 23.2341 26.5242 23.0395 26.8519C21.8822 28.7466 20.9707 31.563 20.7864 33.7546C20.7557 34.1438 20.7045 34.7173 20.684 35.0041L20.6328 35.5469H24.7703H28.9078L28.9693 35.3113C29 35.1884 29.0307 34.9221 29.0307 34.7173C29.0307 34.0824 29.5018 32.4437 29.932 31.5937C30.6182 30.2316 31.7242 28.9412 32.8405 28.1935C33.0556 28.0604 33.2297 27.8863 33.2297 27.8146C33.2297 27.6917 29.594 20.7173 29.4506 20.5637C29.2458 20.3589 26.1734 22.7758 25.18 23.9126C24.9137 24.2301 24.6577 24.4861 24.6269 24.4861C24.5962 24.4861 24.2582 23.9434 23.8793 23.2777L23.1931 22.0692V19.7956V17.522H22.3738H21.5545V19.5703V21.6186H20.7352H19.9159V18.3413V15.064H19.0966H18.2773V18.3413ZM30.0651 25.4693L31.0278 27.3333L30.3314 28.0297C28.9795 29.3815 28.0168 31.1226 27.556 33.007L27.3409 33.9082H24.9239H22.507L22.6401 33.0582C22.8142 32.0033 23.2136 30.6208 23.6335 29.6171L23.9612 28.8387L24.0124 29.5044C24.1046 30.7539 24.842 31.4503 26.0607 31.4503C27.3204 31.4503 28.109 30.6617 28.109 29.3918C28.109 28.8285 28.0578 28.6442 27.812 28.255C27.515 27.7839 26.8391 27.3537 26.4089 27.3537C26.2758 27.3537 26.1017 27.1694 25.8866 26.7905L25.5589 26.2272L26.0505 25.6332C26.583 25.0085 27.8325 23.7795 28.406 23.3186L28.7542 23.0421L28.9283 23.3289C29.0205 23.4825 29.5326 24.4554 30.0651 25.4693ZM26.3168 29.402C26.3168 29.5864 26.2553 29.6683 26.0812 29.6888C25.8354 29.7298 25.692 29.5044 25.7945 29.2382C25.8252 29.146 25.9481 29.0948 26.0812 29.1153C26.2553 29.1357 26.3168 29.2177 26.3168 29.402Z" fill="#061951"/>
<path d="M35.2372 18.4964C34.7353 18.5784 33.9775 18.7422 33.5473 18.8549C32.4617 19.1416 30.7719 19.7868 30.7719 19.8995C30.7719 20.0019 34.5203 26.9456 34.6534 27.0685C34.6944 27.1197 35.186 27.0378 35.739 26.8944C41.3206 25.4708 46.8509 29.7108 46.8509 35.4152V36.4599L46.5232 36.5111C46.3389 36.5418 45.9087 36.593 45.5708 36.6237C44.6798 36.7057 43.4713 37.0436 42.4574 37.484C39.8356 38.6106 37.521 40.9866 36.4559 43.6493L36.1896 44.3355L35.6059 44.1819C34.6944 43.9566 33.0455 43.0963 32.2876 42.4716C30.9051 41.3245 29.8195 39.6757 29.3176 37.9449L29.1026 37.187H24.9138H20.7148L20.7865 37.6171C21.3293 41.0685 22.374 43.5981 24.2789 46.0766C24.6373 46.5374 24.9343 46.9368 24.9343 46.9573C24.9343 46.988 24.1764 47.6333 23.2445 48.4116L21.5546 49.8147V52.5184V55.2119H22.374H23.1933V52.9793V50.7569L24.4325 49.7327C25.1084 49.1695 25.8048 48.6062 25.9584 48.473L26.2452 48.2477L26.7982 48.7188C27.638 49.446 29.3586 50.5623 30.4135 51.0641C32.0623 51.8527 34.1106 52.4467 36.1179 52.7028C36.5993 52.7642 36.5993 52.7642 37.0397 53.5835C38.4837 56.2872 41.1362 58.3355 44.2803 59.1753C45.1509 59.4109 45.4683 59.4416 47.0558 59.4518C48.5715 59.4518 48.9811 59.4211 49.7493 59.2265C50.6505 59.0012 52.197 58.4072 52.6271 58.1307C52.8524 57.9873 52.9753 58.0795 56.4471 61.3363C58.4135 63.19 60.1853 64.7671 60.3798 64.8491C60.9738 65.0949 61.9673 65.0334 62.633 64.7159C63.3601 64.3575 64.3842 63.2924 64.7324 62.5448C65.0807 61.7766 65.0909 60.8037 64.7529 60.1687C64.5891 59.8615 63.4215 58.694 61.0046 56.4306C58.3111 53.9112 57.502 53.1022 57.5635 52.969C57.8912 52.2214 58.3418 50.6852 58.4852 49.8864C58.8232 47.9507 58.5466 45.4826 57.7888 43.6596C57.1845 42.2053 56.0272 40.4745 55.1055 39.6654L54.7778 39.3787L54.9519 38.3033C55.2182 36.7774 55.2079 34.2068 54.9417 32.6193C54.3477 29.168 52.6373 25.8702 50.1282 23.3611L49.5444 22.7773L50.5378 21.405L51.521 20.0326L57.84 20.0019L64.1589 19.9814V19.1621V18.3428H57.3586H50.5481L49.401 19.9507C48.7661 20.8417 48.2335 21.5893 48.2233 21.5996C48.213 21.6201 47.7419 21.3538 47.1889 21.0056C45.3967 19.879 43.4405 19.0802 41.4435 18.6398C40.1223 18.353 36.6095 18.2711 35.2372 18.4964ZM39.3337 20.1248C40.9621 20.2272 42.7441 20.7086 44.4749 21.5279C45.6322 22.0707 47.1787 23.0436 47.0967 23.1768C47.066 23.2177 46.7895 23.2587 46.472 23.2587C45.2942 23.2587 44.4954 24.0882 44.4954 25.307C44.4954 26.5667 45.284 27.3553 46.5437 27.3553C47.3732 27.3553 47.957 27.0378 48.3462 26.3721C48.6022 25.9419 48.6125 25.8498 48.5613 25.0714L48.51 24.2316L49.186 24.9485C51.3674 27.2528 52.7193 29.9771 53.2518 33.1724C53.3952 34.0019 53.4157 34.6267 53.385 36.04C53.3542 37.0334 53.303 37.9346 53.2518 38.0268C53.1904 38.1804 53.1289 38.1702 52.6578 37.9039C51.6644 37.3509 50.4662 36.9515 48.8275 36.6135C48.6022 36.5725 48.592 36.5316 48.592 35.3845C48.592 34.0224 48.4076 33.0085 47.9365 31.7386C47.3835 30.2638 46.7383 29.2909 45.4683 28.0209C44.2087 26.7612 43.2255 26.1058 41.7507 25.5528C40.2555 24.9997 39.3747 24.8666 37.5415 24.928C36.6607 24.9588 35.8517 25.01 35.739 25.0407C35.5649 25.0919 35.3908 24.8256 34.4076 23.0026C33.7931 21.8454 33.2913 20.8622 33.3015 20.8212C33.363 20.5242 37.0089 19.9405 38.1969 20.0531C38.371 20.0634 38.8729 20.0941 39.3337 20.1248ZM46.7997 25.307C46.7997 25.4913 46.7383 25.5732 46.5642 25.5937C46.431 25.6142 46.3081 25.563 46.2774 25.4708C46.175 25.2046 46.3184 24.9792 46.5642 25.0202C46.7383 25.0407 46.7997 25.1226 46.7997 25.307ZM49.2474 38.4774C52.3813 39.1841 55.1772 41.6113 56.2628 44.5813C56.7441 45.882 56.8261 46.4043 56.8261 48.0429C56.8261 49.9376 56.652 50.7057 55.8634 52.2931C54.6242 54.8125 52.2891 56.7379 49.5649 57.4753C48.4588 57.7825 45.919 57.8132 44.9051 57.5367C42.8465 56.9734 41.4332 56.1439 40.0609 54.7101C35.5239 49.9581 36.8963 42.2463 42.8056 39.2558C43.5839 38.8666 44.9665 38.4365 45.8268 38.3136C46.6973 38.1907 48.3155 38.2726 49.2474 38.4774ZM27.8531 39.1022C27.976 39.6142 28.6929 41.0173 29.164 41.6932C30.5671 43.6698 32.8612 45.288 35.0938 45.8615C35.7492 46.0356 35.78 46.0458 35.7083 46.3019C35.5751 46.773 35.6468 49.4972 35.8107 50.2141C35.995 51.0334 36.0872 50.9924 34.6841 50.6954C32.9226 50.3063 31.1304 49.5689 29.5942 48.5755C28.7031 48.0019 27.5664 47.1109 27.638 47.0392C27.6688 47.0085 28.0272 46.9983 28.4266 47.0085C29.0411 47.029 29.2152 46.988 29.5942 46.7627C30.2496 46.3838 30.5671 45.7898 30.5671 44.9705C30.5671 43.7108 29.7785 42.9222 28.5188 42.9222C27.6892 42.9222 27.1055 43.2397 26.7266 43.8951C26.5012 44.2741 26.4603 44.4482 26.4808 45.0422C26.491 45.4313 26.4603 45.7386 26.3988 45.7591C26.1735 45.841 24.7807 43.8337 24.074 42.4204C23.6439 41.5806 23.0294 39.901 22.8451 39.1022L22.7836 38.8256H25.2825H27.7814L27.8531 39.1022ZM28.7748 44.9705C28.7748 45.1548 28.7134 45.2368 28.5393 45.2572C28.2935 45.2982 28.1501 45.0729 28.2525 44.8066C28.2832 44.7144 28.4061 44.6632 28.5393 44.6837C28.7134 44.7042 28.7748 44.7861 28.7748 44.9705ZM60.1443 58.0693C61.8341 59.6567 63.2372 61.0393 63.2679 61.1417C63.4523 61.8483 61.9365 63.4358 61.2504 63.2617C61.0865 63.2207 56.4369 58.9705 54.7471 57.3114L54.3989 56.9734L55.085 56.3385C55.4537 55.9902 55.9248 55.4782 56.1297 55.2017L56.4983 54.6998L56.7953 54.9456C56.949 55.0788 58.4647 56.4818 60.1443 58.0693Z" fill="#061951"/>
<path d="M45.704 39.6459C44.8335 39.7995 44.0449 40.0658 43.1129 40.5471C42.355 40.9363 42.0068 41.2026 41.1568 42.0424C40.317 42.8924 40.0507 43.2406 39.6616 43.9985C39.0368 45.207 38.7603 46.2106 38.6886 47.501C38.4633 51.4849 40.8291 54.9158 44.6491 56.1345C45.6118 56.4418 47.7932 56.534 48.8583 56.3086C51.9103 55.6634 54.2863 53.482 55.249 50.4506C55.5665 49.4469 55.6484 47.3884 55.4129 46.2516C54.7267 42.9436 52.0639 40.332 48.715 39.6868C47.9059 39.5332 46.4926 39.5127 45.704 39.6459ZM48.5409 41.4381C50.415 41.8273 52.2483 43.2611 53.0778 44.9714C53.6411 46.1082 53.8152 46.8558 53.8152 48.0233C53.8152 49.6517 53.2929 51.106 52.2585 52.3247C50.9271 53.8917 49.1963 54.7007 47.1378 54.711C45.1612 54.711 43.5738 54.0146 42.1707 52.5193C40.1839 50.3891 39.8459 47.1221 41.3411 44.5822C41.7713 43.8448 42.9593 42.6568 43.6864 42.2267C45.1407 41.3767 46.8715 41.0899 48.5409 41.4381Z" fill="#061951"/>
<path d="M54.3262 22.4385V23.2578H56.3745H58.4227V22.4385V21.6192H56.3745H54.3262V22.4385Z" fill="#061951"/>
<path d="M60.0625 22.4385V23.2578H62.1108H64.1591V22.4385V21.6192H62.1108H60.0625V22.4385Z" fill="#061951"/>
<path d="M54.3262 25.7158V26.5352H59.2421H64.1579V25.7158V24.8965H59.2421H54.3262V25.7158Z" fill="#061951"/>
<path d="M15 57.669V58.4883H18.2773H21.5545V57.669V56.8497H18.2773H15V57.669Z" fill="#061951"/>
<path d="M23.1934 57.669V58.4883H27.6996H32.2058V57.669V56.8497H27.6996H23.1934V57.669Z" fill="#061951"/>
<path d="M15 60.9463V61.7656H23.6028H32.2056V60.9463V60.127H23.6028H15V60.9463Z" fill="#061951"/>
</svg>
